<svg height="1200" width="1400" viewBox="0 0 1400 1200" xmlns="http://www.w3.org/2000/svg"><g fill="none" fill-rule="evenodd"><path d="M0 0h1400v1200H0z" fill="#232426"/><g fill="#313337" fill-rule="nonzero"><path d="M419.7 670.94l2.11 18.25-65.27 2.12 17.95-19.43zM506.5 701.49l-80.3-6.31-4.39 21.66 82.52 8.13zM420.4 695.18l-4.74 20.5h-74.7l15.58-18.74z"/><path d="M366.03 641.62l1.59 11.26v15.35l-14.78 21.32-16.54 23.77-26.74 60.33h-7.75s-14.78 5.3-14.78 3.54c0-1.78-21.12-32.9-21.12-32.9l40.3-21.47-3.35-5.98-38.7 21.97-34.84-57.69 83.8-46.12 35.77 25.55 15.17-17.6"/><path d="M340.97 623.39v18.23l17.85-.09-10.2 13.48-32.04-21.83zM550.07 735.15l-41.52-5.29-2.05 14.96 38.65 1.74zM504.33 729.86l-2.64 14.43h-86.21l4.92-21.47zM415.47 722.82s-8.09 40.63-9.14 39.92-34.75-5.6-34.75-5.6l-36.7 3.14-15.12-3.13 17.94-36.64zM308.14 777.2h-6.33s-11.78 4.06-11.35 4.66 7.1 13.28 7.1 13.28z"/><path d="M319.76 760.98l14.42 3.37 37.4-3.37 32.45 6.69-4.16 36.8-20.86 15.03-44.47 2.36-28.34-14.93-5.87-8.64zM500.64 748.67h-86.75l-4.4 21.82-5.46 29.73h91.85zM595.67 758.48l-24.66-13.66-10.11 3.4-5.24-13.17-5.59 11.5-2.28 4.58-43.46-2.46-3.7 53.98 80.6-5.07zM603.74 762.75l28.86 23.4-2.81 8.98-40.87 1.75zM635.19 789.47l6.5 4.43-8.14 2.25zM602.69 802.99l43.63-.34s26.4 21.48 27.45 22.28 14.43 13.12 14.43 13.12l-8.8 33.43s-77.42 6.53-76.71 4.15c.7-2.39 0-72.64 0-72.64zM597.58 802.65v72.98l-95.18 1.87-1.76-68.3zM495.88 808.49l1.94 67.66-106.98 5.89-1.66-24.89 7.12-27.2-7.12-10.45s14.33-15.9 16.44-15.03 90.26 4.02 90.26 4.02zM281.33 610.24l29.82-4.03 5.43 15.77-93.25 51.73-20.76-19.35 47.51-59.2 1.76-12.45-1.76-14.81 6.7-2.9 21.77 8.3zM199.4 656.19l18.66 19.83-62.64 37.3zM224.74 682.25l36.15 60.54-86.82 48.63-7.74-35.36 33.43-19.22-2.47-3.28-30.96 18.63-5.99-18.63 2.82-13.05z"/><path d="M260.9 745.8l21.2 33.48s-98.88 49.27-98.88 48.21-8.45-32.36-8.45-32.36zm23.06 36.05l14.5 25.23 7.74 5.73 27.98 14.7 44.83-2.13 5.15-3.52 5.02 8.8-5.02 26.5.7 50.92h-35.9l.36 4.93h35.9l.7 33.78-44.95 10.2-4.4-2.1-10.83-34.14-3.52 1.05-5.64-2.46-2.27-4.22-26.58 6.33-7.74-30.61-53.14-1.06-1.76-2.81-29.56.35-8.09 2.81-19.36-13.98s18.66-20.86 19-21.91c.36-1.06.71-5.28.71-5.28l-3.52-18.3z"/><path d="M309.56 1018.58c3.89-4.93 37.64-18.3 39.4-18.65 1.76-.35 38.36-3.87 38.36-3.87l-1.76-43.64-47.5 9.85-5.28-3.16-7.04-21.47-3.17-10.2c-4.82 1.48-11.26-7.4-11.26-7.4-3.17 0-17.24 3.88-20.86 5.64zm191.08-49.27c-1.41.35-109.1 7.04-109.1 7.04v30.26l-4.22 8.1 1.86 52.43 111.46-23.22z"/><path d="M387.32 1000.63v5.28l-4.57 8.8 2.28 52.43s-33.25 10.91-35.01 9.5c-1.76-1.4-43.64-50.67-43.64-50.67l42.94-21.47zM502.75 882.04l94.83-2.11 80.06-2.43-13.02 59.08-103.02 19-3.08-30.96-4.04.35 2.1 32.03-15.47 2.1-2.12-13.01 3.52-4.93 9.86-.35-.7-5.28H539.7l-4.58 8.44 1.06 15.14-29.68 4.22zM663.92 940.8l-4.22 37.3s-40.82 10.21-40.82 9.16 1.76-8.1 1.76-8.1l-6.69-28.85zm-54.31 10.92l6.62 28.15-2.28 7.47s-107.22 26.31-107.45 24.9c-.23-1.4 0-42.93 0-42.93zM659.35 982l-3.17 25.67-149.79 34.13.1-26.04zM716.43 818.35l20.05 2.9 48.35 38.36s-29.34 24.71-29.6 23.57l-8.19-33.36s-39.13-13.51-38.7-13.25c.43.25 8.09-18.22 8.09-18.22z"/><path d="M742.82 852.13l-34.48-11.08-15.4 38.26-4.74 19.53 67.02 5.55zM756.28 909.14c-1.06 0-68.08-5.81-68.08-5.81l-8.2 62.81 86.04-14.42zM790.59 862.69l85.77 46.18-7.82 15.57-48.13-18.46 5.64-16.9-39.77-22.43z"/><path d="M866.86 927.87c-.8-.52-48.58-17.15-48.58-17.15l-5.26 10.88-2.92-1.72 11.1-29.48-36.4-21.73-26.51 21.52 12.24 60.38 65.98-9.76 20.32 9.76z"/><path d="M854.45 952.95l-19-7.66-63.87 10.03 4.5 29.56 2.9 5.02 3.74 2.37 46.15 1.06zM680 901.75l-5.17 37.3s-7.04 67.56-7.57 67.39c-.52-.18-3.34 0-3.34 0l10.03-76.19zM711.24 812.81l-12.13 24.89h-1.93l11.16-26.95z"/><path d="M698.23 841.05c-.53.34-2.11 0-2.11 0l-5.28 16.1zm-18.22 130.37l87.09-15.04 4.75 30.96 3.96 6.25 6.4 3.43s43.06.97 43.94.97l-2.64 6.86-40.96-3.4a.25.25 0 01-.34.06c-1.12-.53-37.35-2.9-37.98-2.9s-28.33 1.31-29.12.79c-.8-.53-38.94 6.33-38.94 6.33zm-256.43-733.7l-6.7 12.95-23.82 25.8s-55.09 92.68-55.35 92.16c-.27-.52-19.53-11.44-19.53-11.44l13.72-23.92-3.7-2.47-39.05 61.59 3.7 2.11 23.22-34.17 19.53 12-24.45 39.77h-11.98l-23.75-18.66-21.37-12.14 12.66-17.2 15.04 10.28 2.21-2.58-14.87-10.29 7.65-8.97 13.2 7.79 2.1-3.04-14.24-9.24 8.7-12.14 15.93 9.6 2.29-2.83-16.37-9.4 6.34-10.57 16.46 10.03 1.98-3.43-15.8-10.03 8.7-12.4 14.79 8.97 2.64-3.7-15.58-8.97 6.87-12.77 14.51 9.6s3.43-3.56 2.9-3.75c-.52-.2-14.77-8.65-14.77-8.65l8.44-12.14 18.3 11.35 2.29-2.9-18.74-11.35 11.08-16.63 12.67 13.46 7.92 2.9 1.94-3.95-8.54-3.43-11.78-14-9.33-16.09-2.11-8.9h-5.02l2.64 10.56 8.7 15.84-10.55 16.8s-50.4-78.31-50.93-79.8-7.92-5.3-7.92-5.3l4.75-8.68 22.06-14.8 19.87-12.05 13.92 21.75-27.18 14.13-7.56 4.96 1.85 3.53 11.88-6.71 10.29 16.37 5.8 1.8 10.03-8.56-2.1-2.64-8.19 7.13-3.17-1.59-8.7-14.63 19.26-10.7 17.67 20.5 9.78 5.45-22.08 27.38 4.42 2 21.98-26.14 56.38 32.56zM346.42 368.63l7.39-11.44 7.48 2.75-7.44 13.27z"/><path d="M344.82 371.54h1.6l6.56 3.22 8.31-14.82 16.63-7.4 4.65 1.59 21.46 34.04-35.09 18.44-24.8-16.06-8.25-5.08zM334.02 392.12l5.95 4.1-10.3 19.18-7-4.8zM327.84 418.86l-7.28-4.57-4.49 5.84-10.3 19.64s3.94 12.83 4.45 11.88zM307.5 455.5l-5.68-10.34s-9.5 13.21-10.29 14.26c-.79 1.05-15.57 32.2-15.57 32.2l-8.97 24.53-1.51 30.02 18.5-33.16-5.42-3.67zM259.59 273.36l5.88-9.23 40.16 34.05-5.86 8.8z"/><path d="M282.28 208.95l7.4 11.53-19.54 25.33 2.9 3.8 19-25.86 8.72 14.68-15.57 22.26 2.37 3.17 15.57-21.9 7.66 12.93-11.88 17.94 2.9 2.64 11.32-16.62s9 13.98 9.54 13.72l-14.59 21.92c-7.38-6.7-41.1-36.17-41.1-36.17h-3.7l-7.65 10.56s-2.9 5.01-1.58 5.27c1.31.27 42.34 37.9 42.34 37.9l-21.5 32.3-27.44-13.55-3.01 4.89 27.29 13.94-21.65 28.34-18.73-8.54-20.85-9.1-25.07-16.24zM307.49 417.99l-3.3 7.17-3.86-7.17zM301.81 429.34c-.52-1.06-6.86-11.77-7.39-12.75s-19.7-16.02-19.7-16.02l-24.64-16.28s-19.52 18.4-20.32 18.65c-.79.27-26.39 36.83-26.39 36.83v3.82l10.03 12.67 4.75 12.4-3.7 1.85-3.69-11.55-11.87-13.79v-5.4l27.18-38.94 20.06-18.09-21.12-9.53-28.76-16.02-12.67-10.2-9.86 19.27-27.88 55.31-5.8 12.06-8.45 14.98-5.02 15.37-16.1 24.57-15.04 7.12-2.14 5.03 45.95 17.3 61.23 25.35 27.98 14.67 31.14-44.1 13.99-38.4zM214.89 577.84l-11.17 8.28-14.86 10.56-67.23 20.02-28.85 8.6-53.14 15.75-27.1 7.34-9.15-6.77v-10.78l9.15-18.51 26.75 16.89 3.57-4.23-27.83-16.57 52.43-112.75 82.47 31.89-15.17 29.97 5.47 2.02 14.98-29.74 51.59 21.46L225.33 563zM245.15 562s-3.52-6.57-1.76-12.7L236 559.94zM262.4 522.64v20.51L250.08 562l-3.52-6.35V543.5z"/><path d="M164.57 609.89c1.4.13 29.2-9.83 29.2-9.83l25.7-17.35 12.66-17.45 14.43 4.27v25.63l-47.16 53.76zm-4.23 2.03l35.55 40.96s-55.25 66.93-55.25 65.87-19.71-81.7-19.71-81.7l1.46-13.66zM117.41 625.96l-1.2 8.5-58.27 14.46v-3.96zM54.42 644.96v3.96l-20.5 6.69-9.06-2.73zM117.41 639.58l18.65 83.24s-33.08 41.35-33.08 39.93-42.93-89.04-42.93-89.04l-1.01-19.66zM54.42 656.19l-14.78 2.74 14.78 9.3zM0 785.25l69.2-81.98c-1.06-.35-12.67-27.25-12.67-27.25l-9.5-5.08L0 725.36m0-71.71l1.63-.77s13.73 2.53 14.78 3.3l13.73 4.37s13.02 6.12 13.72 7.68c.46 1.01-25.6 30.33-43.86 50.69M.23 792.54l71.08-82.46 27.45 55.83-91.14 109.1L0 868.56M155.2 721.97l.57 11.59 13.72 58.98-41.87 47.62-45.4-37.65 51.03-60.88 7.75-8.57zM123.74 844.74l-43.98-38s-67.57 73.19-66.87 73.54c.7.35 47.51 39.76 47.51 39.76zM170.9 797.52l12.9 53.36-19.23 21.66-33.08-27.8zM160.34 876.4l-32.02-28.5-64.05 73.9 34.49 29.21zM164.57 880.28l28.85 22.87 9.15 39.42-27.8 17.94-95.72 81.65-9.85 9.15s-11.61 21.11-11.26 18.3c.35-2.82-14.07-15.14-14.07-15.14l-13.38-15.77zM0 998.83l62.16-73.86 33.08 29.21s-67.57 80.94-68.27 79.88c-.56-.83-19.24-20.02-26.97-27.94M0 992l57.94-69.14-48.16-39.75L0 895.04M274.54 894.19c-1.06 1.22-73.9 0-73.9 0l-4.93 5.44 19.36 75.44 12.31 55.47 7.75 16.54 16.89 7.04 18.65-2.11 13.37-13.31s9.85-12.73 10.91-13.08c1.06-.36 9.5-4.58 9.5-4.58z"/><path d="M202.57 948.22l-24.98 15.1 10.9 11.75 11.27 37.23h-4.05l-10.03-34.2-10.9-11.25-28.16 23.93 21.47 27.45-2.82 2.1-22.87-26.74-49.27 42.23 23.6 30.33 11.24 7.68 8.1 2.94 40.16-8.51-4.63-16.6 3.17-.7 5.28 16.18 44.34-9.5 8.1-8.45-10.56-19z"/><path d="M344.39 1076.77c-.35-.48-42.58-47.99-42.58-47.99l-2.74 1.35 5.22 7.2.78 15.82 5.8 13.74 3.96 2.97 6.6-2.72 1.86 2.86-8.46 3.83s-5.63-1.95-6.69-3.97a968.9 968.9 0 01-7.81-17.08v-14.08l-3.8-4.63-17.9 17.59-8.14 5.63-5.98 1.76v6.68l-4.94 9.86-2.8-2.11 4.12-7.75v-5.98l-10.8-1.05-14.44-5.92-7.21 8.73-71.8 15.26 3.7 7.26h9.15l5.28 3.17 14.43 17.24s-2.11 3.52-2.82 2.11-13.37-15.83-13.37-15.83l-4.93-3.17-7.74.7-5.98-3.16-2.46-8.32-15.84 4.1-10.2-4.1-9.33-6.9-21.29 15.57v5.28l13.72 16.17h5.64l9.21-8.32 5.22 1.36 5.84 8.57-3.38 1.93-3.87-6.7-3.88-1.05-7.2 7.75h-8.28l-17.6-19.36v-7.04s23.23-15.13 21.65-16.89c-1.59-1.76-21.64-28.44-21.64-28.44l-17.6 15.42-11.26 19.7-2.11 36.6v20.77l4.57 6.68h15.84l167.15-32.37zM426.39 231.63l-2.81 1.7-69.73-40.24L384 155.8l10.88 6.87 4.24-4.13-13.51-8.37-19.57-19.15 12.84-6.89-1.8-3.72-13.5 5.96-22.7-20.86 8.02-8.83-3.84-2.65-9.16 10.04-13.22 18.88 3.41 3.42 11.27-17.33 42.76 43-29.21 37.3-20.81-27.73-12.16-17.9L296 70.36l81.3-40.2 90.66 106.07-24.5 46.06zM490.78 89.94l-21.11 41.08-88.94-102.84 26.12-11.6zM493.94 83.88l-81.28-68.75 16.89-9.9 73.72 63.08zM467.12 0c17.57 16.69 48.2 47.19 48.2 47.19l-8.88 17.41-73.46-59.38s3.15-2.34 7.08-5.22M538.55 38.21l-13.93 12.55-3.5-4.63 10.83-15.97zM473.89 0c18.06 17.11 45.04 42.91 45.04 42.91l10.9-14.46L499.3 0M339.95 0c-13.2 6.52-23.2 11.72-22.83 12.36 1.06 1.84 21.7 30.55 21.7 30.55 1-1 64.87-30.55 64.87-30.55S421.19 3.5 427.55 0M310.6 143.7l-20.77-69.9-68.97 26.1-83.05 21.67L97.7 143.7l-4.4 9.19 68.8 108.95s50.32-19.92 50.68-20.97c.35-1.06 9.3-6.13 9.65-7.18s46.65-63.56 46.65-63.56z"/><path d="M264.86 187.73l6.33 3.87 6.69 12.74-29.91 41.85-26.4 39.36-17.94-7.03-8.8-23.58 20.71-7.53 11.31-8.3z"/><path d="M190.6 257.4l9.86 25.7 16.19 6.27-33.43 50.73-59.83-48.2s10.2-10.53 11.26-10.55c1.06-.01 55.96-23.94 55.96-23.94zm-67.2-45.8l-36.25-56.95s-65.81 46.87-64.05 46.84c1.76-.04 25.34 31.83 25.34 31.83l14.78 22.33 23.57-9.46-28.85-36.8 5.28-2.66L79.4 229.8l19.5-14.13 10.06 5.49 8.1-5.08z"/><path d="M126.91 216.08l-17.94 12.5-10.56-6.25-15.84 11 8.8 11.06 17.24 19.74 16.2 16.17 32.3-17.07zM89.61 250.72l-23.93 8.8v20.78l4.93 10.54 14.43 14.07 14.42 8.1 21.5-30.23zM19.58 204.86c1.4.98 13.02 16.14 13.02 16.14l11.26 12.84 14.43 22.33 2.82 3.87-1.41 20.78L4.8 216.6zM0 386.29l3.04 1.67L0 395.55M0 275.58l6.2 12.1 22.88 11.07 4.55 14.26-3.5 1.76-4.22-13.02-22.87-10.56L0 283.75"/><path d="M0 417.57l35.42 15.47 25.69-43.32-12.67-6.98-3.52-12.02-9.5-6.63 3.16-4.15 10.91 8.7 3.17 11.43 9.85 4.22 35.2-66.7c-.71-1.06-17.6-9.16-17.6-9.16l-12.67-12.17-11.26-12.46L.93 220.48l-.86.66M119.84 295.41l52.52 43.86-3 2.77-15.95 4.5-13.37-6.9-56.24 14.3z"/><path d="M175.93 341.45l3.95 3.17s-43.54 87.1-44.07 86.3c-.53-.8-38.1-22.63-38.1-22.63s28.07-59.98 28.86-59.98c.8 0 12.22-4.22 12.22-4.22l14.18 6.07 18.47-4.75zM122.09 349.37l-27.55 57.24-28.86-15.54 16.9-32.73zM134.5 433.63l-70.21-39.66L39.49 437s37.73 29.82 38.79 30.35 6.6 4.62 6.6 4.62L95.7 490.3l10.02-3.7 16.37-23.48z"/><path d="M79.6 473.16c.52 1.04 2.97 3.95 2.97 3.95L92 493.7l-1.86 6.14-20.3-7.97zM0 422.02l34.2 15.5 41.17 34.44S61.88 499.54 61.11 499c-.38-.26-30.52-12.79-61.11-25.48m0 52.06l39.64 18.02 19.64-40.38c-.73.24-50.35-20.28-59.28-23.97m0 62.33l5.7 2.02 5.28-8.7c-1.06-.27-10.56-4.22-10.56-4.22l-.42.92M0 573.02l21.8 9.53 17.68-35.24-24.28-10.16-5.8 10.16-3.7 1.98-5.7-1.38M0 577.41l19.95 9.23-15.7 30.6L0 615.92M0 626.46l3.4-4.73-3.4-1.2M0 1061.8l23.38-23.1-23.27-26.89M0 1068.16l26.55-27.35 15.57 16.65s13.46 13.72 13.99 15.04c.53 1.32-1.32 34.57-1.32 34.57l-1.85 6.6s-7.92 13.2-8.7 12.67c-.8-.53-8.98-1.03-9.77.01-.8 1.04-27.71-3.7-27.71-3.7L0 1121.31M56.2 1119.24v9.5l-6.74-2.24zM0 1163.59h1.15l15.05-7.92v-9.5l-6.86-8.3L0 1135.9M23.38 1132.97l-3.49 4.9-7-4.9zM47.46 1135.24l1.87.56a13.91 13.91 0 019.16 8.88l1.02 3.03c.12.38.24.76.33 1.15l.86 3.56c.91 3.76.22 7.72-1.9 10.94l-.8 1.21a13.91 13.91 0 01-4.6 4.35l-4.17 2.44a13.91 13.91 0 01-7.02 1.9h-1.47c-4.17 0-8.12-1.87-10.77-5.1l-1.86-2.27a13.9 13.9 0 01-2.66-5.17l-1.1-4.06a13.9 13.9 0 01-.06-7.1l.37-1.43a13.91 13.91 0 014.17-6.89l2.97-2.68a16.68 16.68 0 0115.66-3.32zM68.32 1148.28l.88 4.84 82.67-15.25 67.66-13.87 74.88-16.37 86.13-26.4 62.96-14.09 57.14-10.08v-6.44l-59.47 12.14-52 11.61-71.05 19-27.67 8.5-82.52 17.37zM655.4 1015.25v5.8l-149 33.07-1.9-4.93zM667.23 1013.41l-5.07.84.21 5.23 4.86-1.04zM671.96 1024.91l-1.35 25.7 123.87 40.1-15.14-65.8.36-6.68-18.3-2h-32.36zM705.8 1007.76l18.28-2.03 12.72.06 51 3.29-.42 2.62a.1.1 0 01-.04.18l-60.43-2.8-52.43 9.15v-5.57z"/><path d="M834.95 1018.23l8.84 21.81-6.76 9.93-7.71.65-5.28-19.72-3.52-9.5-7.95-5.16-24.78-4.33v-2.83l25.23 2.83z"/><path d="M786.34 1036.76l-.06.12-2.3-12.67.85-5.98 26.7 5.63 5.47 3.7s6.2 23.47 8.4 33.28l3.21 8.06 9.84 17.95-7.13 12.31-30.91-6.68-5.93-28.86s-4.77-12.56-6.31-18.66c-.15-.6-.27-1.13-.35-1.58zM833.34 995.44l27.45-42.5 4.49-10.55 30.08 13.99 1.58-3.43-30.08-14.52 14.25-27.71 19.46-35.1 32.4 10.03-8.58 98.44-16.36-9.24-.53-26.13-4.22.27-1.06 29.82.18.1-10.47 21.41 3.96 2.64 10.47-21.92 14.26 7.68-10.08 20.62 3.95 2.64 10.1-21.12 13.02 7.02-10.12 20.7 3.96 2.64 10.13-21.2 13.03 7.01-10.16 20.79 3.96 2.64 10.17-21.29 11.31 6.1-10.13 20.73 3.96 2.64 10.14-21.24 11.31 6.1-10.1 20.68 3.95 2.64 10.12-21.18 11.32 6.1-10.09 20.62 3.96 2.64 10.1-21.13 12.7 6.84-9.87 20.18 3.96 2.64 9.88-20.68 17.3 9.33-25.33 46.98-10.82 4.75-38.8-22.97 12.14-19 35.63 19 1.85-3.95-62.55-35.19-2.64 3.78 23.75 13.11-12.4 19.62-73.37-46.45-9.5-6.07-17.16-6.07-31.67-13.28z"/><path d="M1082.74 985.67l-10.82 21.9-19.8 25.34s-10.81 15.31-11.08 14.52c-.26-.8-31.4-15.05-31.4-15.05l8.97-15.82 19.8 8.44 9.76.26 7.39-1.58 5.28-5.45 2.37-3.98-2.64-9.84-5.54-8.45-8.84-8.62-9.9-5.33-10.82-3.73-8.97-1.85-10.56 1.59-5.28 3.03-3.16 6.29 1.32 7.3 5.27 8.98 7.4 6.86 3.16 3.77-9.24 15.83-26.39-15.83 31.14-66.05z"/><path d="M1057.4 1006.44l-5-8.61-7.93-6.62-7.12-3.87-9.77-5.33-8.97-2.14h-9.5l-6.33 3.69-1.32 6.2 2.9 8.07 7.92 7.9 8.7 6.57 8.45 3.94 8.97 4.27 8.98 1.58c3.8 0 7.34-1.88 9.47-5.03l.56-.82 2.1-4.33zm-52.25-61.14l-30.61 66.6-3.96-2.82s16.36-47.69 17.28-48.48c.93-.8 0-6.5 0-6.5l-12.53-5.9h-4.75l-19.27 49.63-22.7-10.5v-16.17l18.74 8.7 1.85-3.95-18.47-9.77.52-14.42 22.17 10.2 1.32-3.7-23.49-12.92 1.72-16.37 27.05 14.25.53-4.49-26.4-14.25.8-14.82zM938.12 888.29l-2 14.23 148.2 79.72 29.56-70.46-10.03-3.31-18.2-.65-20.13 2.26-27.12 2.49-39.58-.53-10.27-2.16-21.67-11.83-24.01-13.66z"/><path d="M947.09 881.16c.8 0 27.97 15.3 27.97 15.3l3.96-14.5v-11.88l-14.78-2.64zM1054.28 397.49l24.76-8.16 3.26 24.48-20.97 11.97zM1034.42 402.66l16.32-4.08 7.08 28.84-15.51 10.34zM1119.7 658.43l-37.4-33.26-28.02-65.46 85.84-32.2 13.52 38v22.18l-17.17 35.37-4.94 17.42.47 14.25zM1253.14 724.76l-7.47-4.4 6.17-7.04zM975.88 454.15c-.2-.79-15.24-35.98-15.24-35.98.8.35 20.18-7.76 20.18-7.76l7.54-2.12 1.05 7.07 12.05 28.76s-25.39 10.82-25.58 10.03zM1005.29 449.14l29.13 61.6 17.01 41.06-31.93 13.2-11.08-16.1-20.6-66.5 26.14-8.45-1.85-3.7-25.87 8.45-8.7-19.53 25.6-10.03zM901.8 314.28l-6.87 1.84-47.77 25.34-46.19-86.35 50.94-27.66s20.85 16.62 21.64 16.89c.8.26 5.54 6.07 5.54 6.07zM863 225.8l10.55-5.88v3.25l3.7 13.32zM905.75 323.78l10.82 28.5 16.45 35.5-22 10.8-1.84 3.54-24.28 10.33-32.46-63.34 46.18-25.33zM934.78 391.08l13.26 26.28-21.18 13.88-14.25-25.12 1.06-3.59zM887.27 416.41l21.65-10.3 14.25 27.56-17.95 12.56zM933.06 476.07l-9.9-1.6-8.44-23.22 36.69-26.92s19 38.53 19 39.97-37.35 11.77-37.35 11.77zm-93.03-265.51c.8-.27 18.48-10.82 19.8-10.56 1.32.26 10.3 5.51 10.3 5.51h7.12l-2.64 4.78-19.53 9.63s-15.84-9.1-15.05-9.36zm7.66 15.25l-46.72 24.33L781.18 214l9.77-6.02 12.66 20.23s27.45-13.68 28.5-13.68 15.58 11.29 15.58 11.29z"/><path d="M807.57 198.68l20.59 13.73-22.96 10.76-10.56-16.46 11.35-5.22zM786.37 186.16l18.04 11.2-1.55 1.95-23.26 11.61-9.17-14.72 13.9-7.45zM783.74 184.53l-1.64 2.23-13.26 6.33-9.03-16.54 7.39-3.64zM842.86 343.82l-45.84 24.3-58.94-82.8 59.74-26.7zM796.06 253.03l-60.65 26.34s-8.87-24.02-14.46-38.87c-2.42-6.41-7.33-11.2-7.33-11.2l53.58-27.81zM754.88 178.07l10.2 20.47-32.72 17.54-10.56-24.85v-3.52l23.93-9.64zM865.73 385.7l-25.72 12.88 2.85 3.95 25.34-13.2 17.24 31.91-44.07 21.86-16.64-23.26-9.5-15.57-15.94-26.87 17.2-9.02 31.2-16.36zM844.62 446.23l42.66-20.45 14.51 21.77-44.6 21.54zM988.55 513.2l-60.5 12.9-45-7.68-3.96-11.35-18.16-30.11 49.14-21.25 8.8 21.84 15.91 4.22 38.8-12.68z"/><path d="M1001.46 547.31l-90.97 24.43-12.92-27.06-12.13-20.27 42.23 7.33s63-13.37 64.05-13.32zM814.28 0l32.1 113.15s-85.53 46.93-86.57 45.35-102.4-63.54-102.4-63.54L764.96 0m-21.52 168.92l-25.32 9.15L689.6 183s-37.48 2.33-39.6 0c-2.1-2.33-54.9-36.57-54.9-36.57l54.9-45.47 93.43 57.58zM1014.48 567.9l-19.8 7.13-57.79 33.25-13.72-21.64-8.45-9.77 89.52-24.4zM1061.72 599.44c-1.05 2.63-11.87 21.1-11.87 21.1l-6.86 4.5-35.63-46.86c1.32.27 42.75-17.28 42.75-17.28l10.03 23.23s2.64 12.67 1.58 15.3zM947.98 625.96l-5.41-10.3 56.78-34.26 8 11.57zM967.5 655.78l27.45-17.41-1.32-2.64-29.03 17.15-13.72-23.49 57.8-33.52 10.03 14.26-24.55 12.14 1.9 3.7s23.7-13.2 24.5-12.94c.78.26 20.58 22.43 21.1 23.22s-23.48 14.92-23.48 14.92l-41.96 21.77zM982.28 683.23l-2.37-4.22 35.63-17.95v4.75zM1023.98 655.78l21.12-14.25 1.32 2.11-22.44 17.42zM1026.1 672.94l-2.12-4.49 24.28-20.06 3.17 12.67-7.65 11.88zM1001.46 681.38l4.58 1.85 16.1-3.7 1.84 1.33v2.37l27.45 43.28s-28.24 24.28-27.45 23.5c.8-.8-38.53-60.18-38.53-60.18zM1027.68 681.65l20.06-.8 1.32-2.63h12.91l17.96 22.96-26.65 23.58zM1059.09 674.26h-7.66l4.22-4.75zM1057.77 665.81s-2.64-21.64-2.51-22.43c.13-.8 22.3-17.42 22.3-17.42l2.37 3.96 36.69 32.46 3.7.27 12.13-4.22 26.07 29.68-4.87 3.57-4.57 3.96-20.32-26.13-3.96-2.38-9.24.8-35.63 27.7zM1066.5 622.8l3.14 1.84-17.15 14.25-2.64-1.58z"/><path d="M1125.06 671.88l21.38 25.87-23.22 17.03-11.09 4.26-16.63-5.72-12.66-15.57 34.3-25.87zM970.42 676.37l-38 20.41-14.6-26.21 36.24-21.3zM890.72 638.9l42.05-23.76 19.36 31.5-35.9 21.29zM882.8 625.96l39.94-25.78 7.92 11.53-41.52 23.84zM871.9 609.86l35.53-28.46s13.02 15.62 13.2 16.32l-39.76 26.04zm20.93-58.06c.53.7 10.56 22.87 10.56 22.87l-12.67 10.38-18.83-21.82s20.41-12.14 20.94-11.43zm-.88-1.59l-20.06 11.8-3.52-3.17 18.13-17.78c.52.53 5.45 9.15 5.45 9.15zm-31.02 16.9l5.86-7.04 22.52 26.04-9.15 6.86s-18.05-23.4-19.23-25.86zM833 579.6l9.5-8.8 25.87 31.78-8.97 6.76z"/><path d="M834.15 556.2l-2.02 2.28 8.62 9.93-9.68 9.43L816.64 559l12.5-9.15 45.98-31.45 10.32 19.49-28.68 28.68 20.59 28.15-7.4 6.69zM873.2 513.8l-31.4 22.34-6.86-8.1L868.37 505s4.93 8.27 4.83 8.8zm-64.3 33.6l24.1-17.42c-.17.53 5.99 7.57 5.99 7.57l-24.1 17.94zm-33.08-55.07c0-.53-18.83-36.62-18.83-36.62l60.53-31.38c.7.78 10.38 10.46 10.38 10.46l7.75 12.65-52.09 30.1 3.87 7.75s-11.6 7.56-11.6 7.04z"/><path d="M777.58 495.5l15.13-8.1-5.28-8.8 49.8-28.4 20.06 35.62L792 520.57zM793.42 524l65.63-33.09 6.5 10.57-58.4 43.6zM735.88 416.67l59.3-32.38 20.05 36.25-59.64 30.79zM729.72 406.12c-.35-.01-2.46-8.56-2.46-8.56l52.43-30.69 4.58 2.17 9.15 11.73-59.12 32.9s-4.23-7.54-4.58-7.55zm-16.1-216.78l3.96 3.75s10.91 22.99 11.26 22.99l-18.3 9.85-8.8-7.74-41.61-25.1h37.04zM685.91 328.87l5.28-16.44 40.12-19.99 8.44 15.77 35.63 47.3v9.78l-49.35 27.63-31.54-43.82zM617.64 186.16h9.15l67.7 39.77 17.46 15.77 15.3 40.54c-1.22-.35-41.34 19.7-41.34 19.7l-7.74-16.16-49.97-22.54-9.5-22.74-14.78-24.42-14.08-10.57 1.76-5.51zm-30.81 5.36l-8.9-4.73S574 165.4 574 164.35v-5.81l4.58-12.11 49.95 30.08-11.74.08zM704.2 421.24l-4.21-3.43v-46.54l4.22-2.23 17.6 26.51 3.51 12.74 3.52 6.97-9.15 4.57zM699.99 425.78h3.87l15.66-1.45 12.84-6.16 8.1 17.15-37.3 23.02s-4.58.15-4.58 0l1.4-32.56zm4.92 35.23l36.95-22.72s30.27 54.74 31.32 55.8l-66.16 24.33-7.03-.43-1.41-56.28zM679.58 335.02l3.87-4.22 7.56 18.62 11.44 17.45-3.87 1.18zM991.01 775.96c0-1.4-28.5-41.17-28.5-41.17l-4.23-2.82 2.47-5.27-3.03-6.12-6.84-10.42 10.22-7.04 7.2-5.06 11.61-5.98 38.53 61.05s-27.43 24.24-27.43 22.83zM936.82 701.49l38.14-19.84 2.57 4.58-34.96 20.06z"/><path d="M954.06 731.97l-41.87 32.38-11.62-12.32v-9.5l6.16-8.48 40.65-20.73 9.36 13.02zM953.71 800.95l-14.08-3.52-24.9-29.21 42.01-32.73 4.36 2.37 27.45 40.21-31.8 26.4zM846.03 658.43L829.49 644l12.88-13.16 26-18.51s18.48 28.5 19.27 29.2c.8.7 26.66 29.56 27.08 30.62.43 1.05 12.6 25.69 13.94 27.1s-48.5 29.2-48.5 29.2zM811.9 603.68l-25.62-16.51 16.81-16.37 12.14-8.8 11.8 18.37 28.5 31.96-18.3 15.13zM796.32 629.22c-.97-1.06-28.42-16.9-28.42-16.9s13.73-23.75 14.78-22.25 26.22 18.2 26.22 18.2l24.1 22.57-10.2 10.7s-25.51-11.27-26.48-12.32zm-120.15 80.05l12.46-7.78 25.78-21.95 23.23-30.26 28.5-31.41 37.3 21.02s14.08 6.51 14 6.51 6.5 5.9 6.5 5.9L839 664.76l11.7 20.06 21.2 46.1-38.88 17.58-94.93 35.93zM882.8 732.58l47.86-27.89 8.77 4.58-51.79 26.22zM777.58 774.6l97.54-39.1 5.04 3.34-96.6 39.96zM617.63 357.86l20.77-8.44 7.48-1.95 24.93-4.79 5.36-4.55 5.44 9.34 12.88 21.57 1.66 48.77-10.24-2.2-14.68-1.93-17.87-3.27-13.3-6.43-15.37-27.17zM635.96 412.1l33.19 9.14 25.34 3.09-1.66 31.38 1.66 62.28-23.27-5.16-22.85-13.7-24.1-25.97s9.56-32.79 9.98-35.4c.41-2.62-1.66-22.15-1.66-22.15zm-86.05-27.8l20.77-8.7 23.89-10.46 10.6-1.05 7.47 2.78 20.05 39.86-4.26 3.68-1.66 3.26v24.09l-9.14 31.33-29.5-8.2s-29.08 16.64-29.08 15.18-14.13-29.84-14.13-29.84l-8.3-7.94 2.48-7.05-10.38-20.83v-12.85l12.74-8.16zM607.34 346.32l18.7-75.2 47.78 23.08 4.1 18.22-2.86 7.73-7.06 12.41-30.28 7.33-20.82 6.43zM747.93 529.98l-8.71-5.36-7.13-11.04 41.94-16.41c.55.8 6.62 11.88 6.62 11.88l-9.5 3.7-21.11 13.36zM713.1 536.14h-6.6l-7.92-.97 2.63-13.46 6.34 1.06 21.3-7.39 5.62 8.45-14.95 10.55zM789.1 555.5l-38-23.76 2.37-3.96s18.47-11.87 19.71-12.4 9.06-3.43 9.06-3.43l8.18 16.36 21.11 30.09-10.03 6.6-9.76-9.5z"/><path d="M691.71 568.41l6.87-29.94 7.38 1.2 8.45-.27 6.6-2.12 13.46-8.44h4.22l11.35 7.3 37.21 23.78 3.7.15 8.34 8.34-19.2 17.06-15.8 25.45zM672.18 625.96l7.66-19 11.87-32.46s69.15 40.9 70.2 41.27l-26.03 27.08zm-23.48 51.46l21.64-45.65s61.93 15.81 61.75 16.1l-22.7 28.24-22.95 20.67-12.15 7.91zM671.13 515.38l23.36 5.19-1.46 11.44h-6.07l-18.47-4.49zM685.64 565c-.52-.27-24.28-8.45-24.28-8.45l6.07-24.54 19 4.13h5.28s-5.54 29.12-6.07 28.86zM646.58 501.4l20.61 13.15-10.3 40.94-51.74-17.02 17.42-61.1zM586.67 534.65l-25.07-54.63 26.66-12.67 27.97 7.12-15.3 61.67zM524.4 515.38c-.8-1.58-41.18-44.34-41.18-44.34l50.67-27.94 7.92 5.51 38 84.72s-49.09-7.05-49.35-7.22c-.26-.17-5.28-9.15-6.07-10.73zm-2.72-107.84l-7.86-3 8.2-5.28v5.56c0 .11-.24 2.77-.34 2.72zm.34 8.87s-34.84 19.53-35.63 19.53c-.8 0-5.02 5.8-5.02 5.8v5.7l7.66 10.9s-10.3 6.37-10.56 5.58c-.26-.8-17.68-16.48-17.68-16.48l48.82-39.47 12.4 4.48z"/><path d="M528.72 431.72s-2.11 6.07-2.3 5.54-33.44 19.53-33.44 19.53l-7.65-9.35-1.05-4.34 2.9-4.81 36.95-18.16zM600.04 218.2l14.78 22.23v5.76l-2.46 3.95-5.02 2.19-27.33-10.67-2.49-13.46 10.2-17.28z"/><path d="M581.07 342.68c-.03.09-15.86-8.36-15.86-9.42v-8.09l14.07-78.98 28.06 10.71 7.48-4.57 7.4 13.72-20.77 80.28s-20.36-3.73-20.38-3.65zm-4.87 14.84l15.4-.33h17.24l1.41 5.15-4.83-1.35-12.47.57s-28.1 12.17-27.74 11.82-11.26 4.59-11.26 4.59l-5.64 2.1s6.7-8.8 7.75-9.86 20.14-12.69 20.14-12.69zM570.49 357.2l-11.97 6.9 3.08-8.31zM564.5 338.13l13.02 8.2H564.5zM548.31 225.93l-14.77-6.01 29.56-44.57L574 193.1l10.2 5.45-19.7 34.78-12.67-5.87 12.67-22.28-4.22-1.76zM545.15 148.51c1.76 1.06 15.48 24.4 15.48 24.4-1.05-.82-30.61 43.17-30.61 43.17l-26.75-11.74s40.12-56.88 41.88-55.83zM533.69 133.88l8.9 10.86-43.9 56.75-16.89-6.17 10.91-19.97 4.93-4.78-2.81-2-5.64 4.34-10.9 20.18L453.3 183l62.65-46.77zM570.48 94.67v15.49l7.04 9.5v13.72s-11.26 24.02-11.26 26.15.7 12.01.7 12.01l-33.43-48.72s36.95-29.9 36.95-28.15zm33.97 6.29V94.6l34.3-26.32 24.76-25.34h8.85l18.02 14.95c-1.38-.86-64.71 57.54-64.71 57.54h-6.97z"/><path d="M673.77 36.92h-13.64l-26.32 28.07-33.6 26.75v12.2l14.61 15.38v3.74l-15.68 10.32-23.52-23.3-.23-20.1 89.4-82.64 44 35.6-14.3 11.3zM584.2 126.37l10.91 10.9-8.7 7.16-6.01-3 3.8-6.22zM531.95 248.28l7.74 1.4 1.23-2.63-7.39-1.94v-1.76l4.58-13.55 24.8 11.44s.18 14.25 0 14.96c-.17.7-3.16 20.58-3.16 20.58l-31.03-4.4zm-13.02-27.8l15.66 7.92-3.87 15.65-2 3.88s-1.87 23.87-2.4 23.2c-.53-.68-23.23-6.66-23.05-7.2.18-.52 7.4-22.51 7.21-23.4-.17-.87 8.45-20.05 8.45-20.05zM511.01 228.57l-65.98-28.85 4.22-10.38 66.7 29.38zM509.78 231.63l-2.64 6.8-65.28-27.5 3.17-8.4zM498.7 261.83c-.03.02-.03 0-.02-.05l.02.05zm-.02-.04c-1.37-1.34-64.03-29.24-63.86-30.16.18-.95 6.16-18.01 6.16-18.01l65.46 27.97s-7.6 19.1-7.76 20.2zM567.94 79.17l69.4-61.54 3.96 2.64-69.14 63.6zM610.16.4l23.76 17.23L613.33 34l-23.5-24.28L600.4 0M572.16 68.3l-24.54-25.39 40.14-30.55 22.4 23.49zM569.52 70.36l-46.98 39.65-23.84-22.44 20.23-39.06 5.46 6.82s15.84-13.94 16.63-15c.79-1.05 27.7 29.3 28.5 30.03zM526.5 113.96l39.4-32.88 3.62 4.12-39.06 33.51zM521.45 118.71l3.17 3.18-40.47 27.91zM517.35 114.14l-17.01 14.2-12.9-15.25 9.03-20.41s20.53 21.23 20.88 21.46zM480.75 145l-5.75-5.52 11.14-22.29 11.15 13.83zM465.62 157.9l7.62-14.2 4.7 3.52z"/><path d="M528.72 276.78l30.04 4.27-6.93 74.74-5.97 13.25-21.87 17.7-21.6-26.8-60.53-20.34-11.79-1.47-31.04-55.69 6.5-8.06 27.71-37.89 69.15 32.38z"/><path d="M515.95 384.3l5.38 4.3s-61.34 49.53-62.4 49.86-5.63-26.36-5.63-26.36l56.48-37.34zM481.45 357.2l19.36 6.9 5.69 7.52-54.96 36.68-6.51-25.42 20.59-6.07 14.87-12.4z"/><path d="M441.86 344.88l36.07 11.28-2.17 6.18-14.97 11.04-15.76 4.59-13.2-35.29zM617.63 549.86l66.52 20.94s-11.02 32.38-10.2 32.88c.8.5-68.8-22.28-68.8-22.28zM579.28 541.07l17.95 4L612 548.5l-10.91 31.88-18.3-5.88 3.87-14.43-46.1-11.57-4.92-12.36z"/><path d="M541.98 552.47l37.83 11.38-2.29 10.65-29.2-9.5zM656.9 641.53c-.2-2.1-88.17-23.66-88.17-23.66l-18.66-47.07 122.11 37.48s-15.1 35.36-15.29 33.25zM571 627.46l6.51-2.42 79.37 21.07-3 5.19c-1.06.09-34.14 65.54-34.14 65.54zm73.64 54.2c1.14 1.05 87.44 104.86 87.44 104.86l-31.4 20.41-9.55 25.24s-16.66-16.29-17.01-17.35c-.36-1.05-32.44-28.35-32.44-28.35l-36.54-29.32 20.23-35.38zM597.58 732.33v-19l16.37 3.51 2.28 7.92-4.22 5.45zM561.6 728.45l1.85-19.7 28.15 4.57v19s-30.43 9.86-30 8.8-3.08-8.8-3.08-8.8zm47.95 7.04c1.06.32-11.97 19-11.97 19l-22.52-13.29s27.67-7.76 34.49-5.7zm-45.75-34c0-.84 2.46-40.43 2.46-40.43s13.03-5.8 13.55-4.75c.53 1.06 27.1 48.38 27.1 48.38l-9.33 1.6s-33.78-3.97-33.78-4.8zm-32.28-56.44s-1.86-19.35-2.8-20.01c-.95-.67 32.88-5.32 32.88-5.32l16.27 33.07-35.89 13.38z"/><path d="M486.38 678.22l18.65 1.32 4.57-3.87 33.79-4.73 18.21-7.59c.09 1.76-3.08 37.8-3.08 37.8s-130.56-10.7-130.9-11.76-1.42-19.88-1.42-19.88l58.08 2.64z"/><path d="M421.98 635.55c1.06.7 42.58 0 42.58 0l60.18-9.59 1.29 20.55 9.62 21.42-26.05 3.95-3.1-5.71-4.99-5.1-17.23 2.28-.2 4.9-21.37-.76-15.74-1.32v-13.38l-3.88.36v13.02s-15.83 2.1-16.89 0-5.28-31.32-4.22-30.62z"/><path d="M500.1 665.11l4.23 7.04v3.87l-14.78-1.76-.62-7.05zM515.59 587.34l31.32-9.5 11.61 37.3-29.82 4.58zM460.79 601.42l49.87-13.02 11.35 31.32-57.45 7.74zM455.41 602.58l3.87 24.88-37.47 1.76-2.64-21.3zM515.59 567.28l24.63-5.28 4.93 12.5-24.28 6.9zM456.12 580.37l55.98-10.84 3.49 13.59s-55.05 12.14-56.29 12.74c.13-.64-3.18-15.49-3.18-15.49zM459.28 595.87l.02-.01c0 .02 0 .02-.02.01zM417.05 586.64l35.55-5.24 3.51 15.8-36.95 6.48zM522.02 542.74l5.53-9.41s9.86 24.1 9.5 24.93c-.35.82-23.57 6.74-23.57 6.74l-96.43 17.7-3.16-18.06zm36.5 165.1l-1.76 17.14-3.47 4.88s-45.1-3.16-44.74-5.1 2.46-23.27 2.46-23.27z"/><path d="M417.57 529.04l.36-5.02 2.53-2.77c.13-.15.27-.28.42-.41l16.23-14.27 8.04-4.71c.04-.03 9-1.5 9-1.5l11.33 3.69a331 331 0 005.31-2.66l17.16-15.83 31.55 33.03 3.04 7.7-6.07 12.36s-95.73 22.52-96.79 21.44c-1.05-1.08-5.35-17.8-5.35-17.8l3.38-3.56z"/><path d="M392.07 497.17l52.96-35.1 9.85-9.16 28.34 27.8-15.27 16.46-14.65-14-50.68 28.78z"/><path d="M445.03 497.17l-1.58-3.56 9.85-5.4s7.3 8.03 9.81 10.25a.15.15 0 01-.15.25l-9.66-3.22zM413.89 536.14l-1.76 2.33-8.1-20.65 35.6-21.54 1.7 2.73-9.5 5.99-17.94 17.67v4.85zM373.02 528.76l-7-12.33 22.88-17.42c.33 1.33 9.12 13.1 10.11 14.44a.15.15 0 01-.03.21s-22.47 16.08-22.4 15.98l-3.43-.8a.15.15 0 01-.13-.08z"/><path d="M362.87 518c0 .26 7.92 13.48 7.92 13.48l4.75 1.85 4.49-1.85 21.19-13.06 6.68 20.05-25.33 6.6v4.8l27.1-7.13 2.46 9.73 1.76 7.45s-27.45 5.96-28.16 5.08c-.7-.89-72.14 17.5-72.49 16.4-.35-1.1-7.04-23.38-7.04-23.38s56.67-40.3 56.67-40.03zM411.7 582.7l-69.41 13.18-26.13 3.95-1.85-14.25 94.48-20.32zM413.89 603.69l-68.7 14.62-1.05-18.48 68.61-11.43zM316.69 603.69c.79-.16 22.83-3.63 22.83-3.63l1.45 18.25s-21.11 1.23-21.11 1.4-3.96-15.86-3.17-16.02zm100.36 25.53c-.86-.1-31.22 4.66-31.22 3.87 0-.8-3.26-17.19-3.26-17.19l31.32-7.97s4.03 21.38 3.16 21.29zM381.08 633.18l-34.04 3.87v-14.78L379 615.9zM417.18 648.92l-43.75 3.96-1.85-12.4 45.47-3.43zM419.17 666.17l-45.74 2.06v-12.04l43.75-3.3zM452.02 433.07c0 1.32 1.63 10.03 1.63 10.03l-17.07 16.33-6.94-7.92 2.2-4.22zM437.64 374.76l13.65 55.64-21.65 14.52-2.1 3.69-55.7-40.31zM436.58 371.28c-2.45 0-29.37 15.05-29.37 15.05l-23.49-36.9-4.7-1.1-17.73 7.46-5.9-3.25 40.6-64.86 10.06 18.15zm-51 122.33c0-2.25-1.71-38.83-1.71-38.83l27.83-.63 7.47-3.96c.45.8 5.72 3.96 5.72 3.96l6.94 7.92s-46.26 33.79-46.26 31.54zM379 443.1l10.52-13.76s24.54 16.37 26.13 16.9l-5.8 3.95h-35.78zM386.11 426.45l-16.1 22.96-28.17 4.45h-27.97l29.82-55.5zM379.01 454.42l2.07 40.64s-37.47 28.56-36.94 27.6c.52-.95-3.17-64.55-3.17-64.55zm-41.47 5.01l1.85 63.24s2.37 1.42 2.9 2.21c.53.8-39.06 26.4-39.06 26.4l-8.71-15.14 22.06-14.69-2.27-3.63-5.8 3.63-24.55-11.88 25.6-50.14s26.66-1.06 27.98 0z"/><path d="M289.5 533.33l-14.77-6.87 7.65-14.51s22.7 11.35 23.82 11.74zm-16.1-2.64l12.41 5.45-20.06 15.13 2.38 2.64 22.33-15.44s9.07 13.07 9.87 14v1.18L282.9 562l-2.9 5.9-23.23-9.64zm10.56 43.8c-.26-1.05 3.8-7.95 3.8-7.95l15.47-6.59 6.33 22.6-25.6 4.09s.27-11.09 0-12.14zM311.15 600.06l-25.6 3.63-1.59-12.3 25.6-4.75zM921.42 828.12l-3.6-3.7-27.1 3.7-37.23-18.2-2.1-4.23-12.94-41.34v-1.45c.52-1.15 45.66-18.08 45.66-18.08s49.61 57.44 50.4 57.97c.8.52 7.13 13.2 7.13 13.2l-12.98 10.28z"/><path d="M834.23 764.35l14.25 47.67 39.85 19.8 26.4-3.7 4.74 3.7-12.4 9.76-3.96 15.57-71-36.95-34.57-39.85zM900.57 862.17l-4.85 10.82-30.88-15.84 7.05-10.03s28.85 14.26 28.68 15.05zm-73.2-37.22c1.05.53 41.17 20.33 41.17 20.33l-5.54 9.5-43.96-21.1s7.27-9.25 8.33-8.73zm-34.58-43.1s32.47 39.67 33.26 40.2l-38.8 35.1-46.98-38s-1.32-3.96-1.84-4.75 3.7-10.82 3.7-12.45c0-1.63 50.66-20.1 50.66-20.1zM744.23 789.59l27.98-12.4 5.37 3.16-33.35 14.78zM739.75 792.5v3.69l-28.5 16.62-2.91-2.06 22.17-13.77zM735 812.81l1.69 4.75-17-2.63 18.7-10.46zM890.04 884.34c-.92-.8-78.5-41.97-78.5-41.97l6.33-5.8 76.53 39.58s-3.43 8.98-4.36 8.19zM888.33 888.95l-10.56 17.03-85.5-45.5 17.68-15.2zM906.73 861.9s4.3-15.57 4.38-16.62c.09-1.06 34.23-25.78 34.23-25.78l6.79-1.94 6.93-4.75v-3.43l123.78-105.83 10.94 13.1 17.5 6.67 16.95-7.1 34.74-24.14 15.84 12.07-38.54 31.34-11.1-13.92-58.5 51.27 38.73 4.37-4.49 20.82-4.22 14.78-2.38 11.41 2.11 9.6-5.8 10.13-4.75 1.33-7.13-1.33-1.58 3.17 4.49 1.98h7.38l5.55-2.78 5.28-8.7 20.05 4.48-2.1 15.05-13.47 47.24-16.37-1.64-27.17 1.64.26-7.92.26-18.97 2.64-11.38-1.58-8.97-4.49-10.03-6.6-9.42s-6.86-2.46-7.65-2.46h-19.26v4.16h10.02l12.14.45 7.66 10.93s5.01 13.23 5.01 14.02c0 .79-2.64 17.15-2.64 17.15l-27.44-4.45-1.06 4.45 27.45 3.43v19l-18.21 1.6-16.3 1.57h-19.86l-16.6-4.22-9.53-5.28 6.43-13.67v-16.94l-8.54-3.17-12.08-2.3a89580.1 89580.1 0 01-20.7 17.35c-.96.8-4.86.8-4.7.8.15 0-24.7 30.08-24.7 30.08l-18.47 3.7-13.55-5.55 11.7-22.24z"/><path d="M1251.84 734.05l3.65 17.97-2.35 6.36-27.31-10.95-1.06 2.6 27.07 11.88s-6.6 16.07-7.65 15.28c-1.06-.8-100.36-38.35-100.36-38.35l40.68-32.56zM1260.1 747.06l-1.42-10.62 9.89 3.88zM1014.91 1105.23v7.91l-7.12-3.96zM1017.82 1115v-11.1l25.07-50.42 69.15 28-3.7 19.79 2.9 11.87h3.96l-2.64-11.6 4.83-23.67-22.36-9.36-27.72-11.08-21.78-8.15 31.4-40.2 10.3-21.3 13.46 5.55s2.11 4.25 1.58 4.5c-.53.25 60.97 45.38 60.97 45.38l24.24 19.59 14.03 11.7s15.83 7.24 17.94 6.97a612.7 612.7 0 0111.88-1.05l5.28 4.22-20.85 24.54-37.22 33.52.27 2.9-15.31 19.8-2.38 9.5-14.51 22.82-51.46-24.46-32.47-30.03zm100.81-201.1s35.63 18.25 36.42 19.41c.8 1.16 23.5 17 22.7 17.26-.79.26-40.9 11.35-40.9 11.35l-13.2 2.37-9.77 10.3-18.2 5.28-4.23-1.59z"/><path d="M1189.36 1004.15c-.79-.53-40.11-29.03-40.9-29.83-.8-.79-11.88-10.29-11.88-10.29l-11.61 2.64-11.09 9.76-17.41 5.81-5.02-1.19-1.85 3.04 7.66 3.7s6.07 2.63 7.91 4.48c1.85 1.85 2.38 5.56 2.38 5.56l59.38 43.26zm21.65-29.83c-1.32-.52-30.88-21.37-30.88-21.37l-40.65 10.68 51.2 37.35zM1214.17 976.96l-20.06 25.6 5.28 3.17h4.75l6.86 6.18v22.85l-16.89 28.24 10.03 8.7 14 5.81 11.87-1.58v-21.38l25.07-51.99z"/><path d="M1192.27 1005.73l5.28 3.35h5.27l4.75 4.83v19.8l-16.62 26.12-21.38-16.89zM1020.72 1126.87c-1.05-.8-24.54-16.1-24.54-16.1l-15.05 27.97s29.03 19.27 30.22 18.48c1.19-.8 9.37-30.35 9.37-30.35zM992.22 1108.13l-14.78 28.77-23.75-16.1 16.36-26.13zM966.88 1092.75c-.8-.44-16.62 25.4-16.62 25.4l-11.88-7.38 15.3-25.34zM950 1082.9l-15.58 24.96-11.08-6.06 15.04-26.13zM936.12 1073.03l-15.95 26.14-28.77-17.43 16.1-26.92zM904.07 1053.48l-15.74 25.35-28.86-16.62 16.89-27.19zM872.93 1032.78c-.8.66-16.9-6.47-16.9-5.54 0 .92-15.73 23.85-15.73 23.85l16.31 8.74zm-20.06-7c-.53 1.06-6.33 10.56-6.33 10.56l-6.24-16.1zm135.6 174.15c-15.12-10.77-104.46-71.22-104.46-71.22l-22.43-17.94-7.13-8.98-22.43-46.97h8.28l51.1 30.61 118.5 78.65s-13.92 28.63-18.1 35.85m-132.33-78.6c0-1.06-8.71-9.5-9.24-10.56-.53-1.06-9.93-19-9.93-19l-8.28 11.08 5.28 25.35zM864.22 1124.76l-51.2 14.51 13.13 59.65 94.81-8.71 13.99-1.59 14.78-5.54-72.05-49.08zM827.53 1102.85l-25.86-6.07 9.54 37.22 21.87-5.8zM670.6 1054.12l123.88 40.55 1.91 4.5-131.94 52.24h-5.1zM656.7 1199.93l2.65-43.77 6.14 1.08 132.75-53.86 21.9 95.54-39.34.95"/><path d="M974.74 1199.93l-21.05-14.21c-.8 0-17.57 6.33-17.57 6.33l-79.5 6.87.27 1.01m143.37 0c2.52-4.54 9.43-17 9.64-17.64.26-.8 12.93-29.16 12.93-29.16l.8-8.05 13.19 1.84s30.35 23.23 30.88 24.02c.53.8 15.04 16.36 15.04 16.36l6.07 12.63"/><path d="M1027.85 1131.35l-1.32 5.55 14.25 3.16s40.9 34.31 41.96 34.58 14.78 24.28 14.78 24.28h6.6s-16.63-25.58-17.16-25.6c-.52 0-42.49-33.26-42.49-33.26zM666.74 1025.26l-4.71.98-17.39 148.92h7.13zM653.88 1028.3l-14.94 144.96H531.42l-25.03-110.79zM501.9 1063.27s15 67.56 14.21 67.56-105.56 20.58-105.56 20.58l-12.73-67.02zm14.24 70.73l10.53 39.26s-117.97 3.8-117.97 1.9 2.38-20.31 2.38-20.31zM185.65 1199.93l-13.16-59.34 93.43-19 67.56-18.21 58.06-16.9 14.52 64.93-214.12 48.52M406.06 1156.69s-2.64 43.55-2.9 42.49c-.27-1.06-190.81.04-190.02.02.79-.02 192.92-42.51 192.92-42.51zm-226.66 43.24l-12.71-58.55-75.22 13.47h-11.6l-11.55 4.74-1.57 3.52a14.18 14.18 0 01-3.16 4.48l-7.39 7.05 1.65 25.3M650.32 1199.93l.92-20.28h-6.6l-2.3 20.28M636.29 1199.93l2.65-21.99H532.2l5.36 22M406.5 1199.93c.89-5.1 2.2-20.28 2.2-20.28l117.97-1.7s4.2 15.08 5.93 21.98M984.57 956.38v2.64l-17.69 47.42-13.2-5.46 19.27-49.26zM1253.76 1065.9l-17.16-12.4-1.58 3.43-1.05 20.06 4.75 4.22zM1150.57 857.15s8.97 14.79 8.97 15.84c0 1.05 1.32 6.32 1.32 6.32l-1.32 11.88s-8.7 20.32-8.97 20.85-6.74 9.24-6.74 9.24-29.68-15.84-32.59-16.37c-2.9-.52 13.2-44.43 13.2-44.43zM1157.43 802.99l-6.6 40.43v9.5l-25.36 3.86 4.28-34.54 2.87-19.25 6.86-3.38zM1129.72 802.99c-.26-.74-4.49-10.77-4.49-10.77l-18.18-4.12-1.6 7.44 3.16 2.22.79 1.85-6.6 22.7 1.85 11.08 19.26 4.49 1.32-12.95v-3.68zm31.4.58l17.42 3.43-11.71 59.83s-2.97 7.67-3.24 6.35-9.6-19.73-9.6-19.73v-12.93z"/><path d="M1211.53 810.43l3.58 33.52 1.17 10.56-4.48 7.39-9.77 12.66-1.59 2.43 2.54 12.94s-28.66 51.67-29.71 50.61c-1.06-1.05-25.6-17.15-25.6-17.15l7.12-8.71s7.92-17.42 7.92-18.21c0-.8 2.11-17.42 2.11-17.42l4.22-10.03 5.02-25.34 6.86-35.36 4.22-2.38zm-98.7-32.72l-2.38 8.7 16.63 2.9 16.1 6.34 36.68 6.86 6.07-2.1 33.26 6.59s13.98-1.58 13.2-1.85-10.56-4.75-10.56-4.75l-53.58-13.72zm24.01 19c-1.05-.27-6.86-3.96-6.86-3.96l1.59 6.86zm215.36 167.06s-37.21-29.3-38.53-30.09c-1.32-.8-55.95 71-55.95 71l-19.27 45.39 26.13 19zm2.9 3.7s38 44.07 38.54 46.44c.52 2.38-33.52 33.25-33.52 33.25l-2.38-1.05-1.84 3.17 7.65 7.12v2.9l-13.72 13.2-5.55 2.11-.79-3.96-11.13-7.91-2.06 2.1-26.13 31.68-35.37-24.81zm11.09-43.03s-22.17 26.66-22.44 25.87c-.26-.8-27.7-20.59-27.7-20.59l26.65-31.14zm2.9 2.9c-.8 1.06-21.9 25.34-21.9 25.34s49.61 52.79 49.88 54.9 23.75-20.85 23.75-20.85z"/><path d="M1215.23 811.22l5.28 43.02s-15.31 21.9-15.31 22.96 2.11 12.14 2.11 12.14l-6.07.53-29.82 47.5s39.59 31.67 39.59 30.88c0-.79 6.6-10.03 6.6-10.03l-1.33-3.95-6.6-6.34 2.9-5.54 3.44 1.32-.53 3.96 4.49 5.01 1.05 6.07-6.33 11.61s42.49 28.5 42.49 27.72c0-.8 29.03-36.95 29.03-36.95l-16.63-11.88s-2.1-5.28-1.84-6.07c.26-.8 2.1-5.01 2.1-5.01l10.04-11.62 2.64 2.38-8.98 11.35-.52 3.96 16.1 13.72 20.84-29.82 29.3-33.26-29.82-31.93-21.12 19.8-3.43-4.76 21.38-19-22.17-24.54s-20.85-15.84-21.64-16.1c-.8-.26-24.55-10.56-24.55-10.56zm27.22-31.23l-8.1 19.7-9.14-4.22s-33.43-8.8-34.84-9.15c-1.4-.35-23.58-4.22-23.58-4.22l1.06-10.91 13.72-15.49zm-66.5-25.7c-1.06-.34-32.73-11.25-32.73-11.25l-14.43-15.84-48.21 41.53s82.34 13.02 82 11.6c-.36-1.4.34-10.9.34-10.9zM1333.24 1067.85l5.63 3.87 1.41 4.22-5.98 6.69-8.8-5.28z"/><path d="M1344.5 1079.1l-7.38 7.4-5.28-.7-9.15-5.29-15.49 19s30.62 24.64 30.62 23.58 43.46-51.28 43.46-51.28l7.97-1.22 6.59 1.04 4.27 4.66 2.42-11.56c.42-1.99 1.32-3.85 2.62-5.42l3.12-3.78a12.56 12.56 0 015.02-3.65l7.58-3.04 5.98-1.76-29.2-29.9-34.14 32.72 7.43 7.53-4.62 6.54-12.31 12.32zm78.83-88.67l11.97 14.07 2.64 18.79 1.9 14.38.35 6.76c0 1.06-1.38 4.33-1.38 4.33l-8.32-2.6-10.92-11.95-19.81-19.85zM1445.86 929.9l-1.76 8.8-9.86 1.4-17.6-5.98-11.25-8.8-8.1-4.22-6.68-.35 17.24-22.52zM1434.24 943.27l-20.4-6.69-11.27-9.5-6.33-2.81-7.75-.7-9.85 8.09s34.49 39.06 34.49 38 21.11-26.39 21.11-26.39zm-136.19-238.6l-17.94 35.55-19.71 14.08-22.87 47.86s23.93 10.9 25.33 10.9c1.41 0 8.8 4.93 8.8 4.93l29.91-53.49 22.88-43.28zm30.62 19.72c-.35 1.05-10.9 21.1-10.9 21.1l21.8 11.97s14.44 10.2 15.5 10.56c1.05.35 42.57 35.9 42.57 35.9l19-24.99zm-13.02 24.63c1.4.7 17.63 9.1 17.63 9.1l-6.72 8.5-2.11 5.62 2.81 3.88 9.86 9.14s-13.38 18.3-14.08 17.25c-.7-1.06-25.69-19-25.69-20.06s18.3-33.43 18.3-33.43zm5.98 55.95l-25.34-19-20.05 35.19 6.68 5.63s16.9 19 16.9 17.6c0-1.41 21.81-39.42 21.81-39.42zm-146.52 394.96c8.14-10.25 31.98-40.18 32.86-39.89 1.05.36 17.6 12.67 17.6 12.67l9.14-14.78-32.02-19-6.69-6.69 14.87-11.74 46.36-52.65 77.42 59.12 20.41 15.48-15.83 29.56 3.52 2.11 16.89-27.8 17.6 11.96 5.62 10.56-5.63 12.67-4.95 18.42"/><path d="M1149.55 1199.81c.35-1.06 15.48-23.23 15.48-23.23l2.47-10.55 15.13-20.06 11.26-10.91 6.69 7.04 28.15 16.54-4.22 7.39-18.3-12.32-36.03 46.22m171.86-74.02l15.49-20.06 19-23.93s5.98-6.68 7.04-6.68 10.82.2 10.82.2l4.66 4.37 3.53 7.35a8.8 8.8 0 001.86 2.56l6.58 6.28-17.6 38.7 3.52 1.77 17.95-38 3.2 1.6a9.73 9.73 0 005.13.99l4.7-.38a9.73 9.73 0 002.7-.6l10.73-4.1a9.73 9.73 0 004.45-3.43l5.33-7.46.7 41.88s-15.83 4.22-16.88 4.22c-1.06 0-22.53 6.68-22.53 6.68l-10.55 7.04-9.5 9.5s-6.76 11.33-6.76 10.27-4.5-8.5-4.5-8.5z"/><path d="M1454.18 1181.92l-3.05-46.52-36.24 10.9-13.02 10.56-12.32 16.2-8.8 26.74h73.57M240.54 0l9.69 10.95 30.92 34.3 12.93 18.55 39.9-19.68c0-2.25-19.67-28.1-19.67-28.1L300.26 29.5l-4.53-4.43 14.65-13.55L302.15 0M234.52 0l.53.83 42.72 48.35 11.25 16.86-41.04 15.74L195.18 0M123.1 0l-.48 9.27-24.17 41.6s12.93 11.24 15.17 11.24c2.25 0 16.7 3.27 16.7 3.27l-1.52 4.6s-14.61-2.81-16.3-3.37-17.43-11.25-17.43-11.25-6.74 23.05-7.3 24.74c-.57 1.68-5.06 26.42-4.5 28.1.56 1.7 13.49 27.55 13.49 27.55l39.91-20.24 106.81-32.04L186.95 0m-68.27 4.2s-1.12 7.32-2.8 7.88c-1.7.56-23.62 35.98-23.62 35.98l-6.18 16.3-20.8-5.62-18.55-9zM85.14 68.62l-20.42-3.7-21.93-11.8L2.32 76.16l39.35 19.68 11.24-23.61 31.54 2.28z"/><path d="M0 180.94l14.69 6.53 4.5 7.87 69.14-47.22 3.93-11.25-15.18-33.16 6.75-24.74-28.67-.56-12.37 25.3L0 81.29M0 213.84l15.81-14.57-5.06-8.99L0 186.39M591.53 0l-7.95 8.7-37.66 29.8L506.88 0M755.56 0c-10.3 9.16-45.02 39.94-45.5 38.5-.44-1.35-32.67-27.98-45.45-38.5M656.23.4l3.8 3.8-16.86 13.5L615.54 0M.01 1172.14l9.72.57 15.83 1.41 5.33 2.42c1.58.72 3.3 1.07 5.03 1.04 3.72-.09 10.22-.19 11.46.06 1.76.35 4.58-1.76 4.58-1.76v21.47l1.39 2.58H0zM390.72 972.35l108.63-8.58-1.55-81.35-106.3 5.46zM0 69.73L114.73 0H0zM314.1 9.36L307.38 0h23.06z"/></g></g></svg>